<?xml version="1.0" standalone="no"?><!DOCTYPE svg PUBLIC "-//W3C//DTD SVG 1.1//EN" "http://www.w3.org/Graphics/SVG/1.1/DTD/svg11.dtd"><svg class="icon" width="200px" height="164.63px" viewBox="0 0 1244 1024" version="1.1" xmlns="http://www.w3.org/2000/svg"><path fill="#ffffff" d="M987.428571 256l-219.428571 402.285714 438.857143 0zm-731.428571 0l-219.428571 402.285714 438.857143 0zm469.142857-109.714286q-8 22.857143-26 40.857143t-40.857143 26l0 737.714286 347.428571 0q8 0 13.142857 5.142857t5.142857 13.142857l0 36.571429q0 8-5.142857 13.142857t-13.142857 5.142857l-768 0q-8 0-13.142857-5.142857t-5.142857-13.142857l0-36.571429q0-8 5.142857-13.142857t13.142857-5.142857l347.428571 0 0-737.714286q-22.857143-8-40.857143-26t-26-40.857143l-280.571429 0q-8 0-13.142857-5.142857t-5.142857-13.142857l0-36.571429q0-8 5.142857-13.142857t13.142857-5.142857l280.571429 0q12-32.571429 40-52.857143t63.428571-20.285714 63.428571 20.285714 40 52.857143l280.571429 0q8 0 13.142857 5.142857t5.142857 13.142857l0 36.571429q0 8-5.142857 13.142857t-13.142857 5.142857l-280.571429 0zm-103.428571 9.142857q18.857143 0 32.285714-13.428571t13.428571-32.285714-13.428571-32.285714-32.285714-13.428571-32.285714 13.428571-13.428571 32.285714 13.428571 32.285714 32.285714 13.428571zm621.714286 502.857143q0 41.714286-26.571429 74.857143t-67.142857 52-82.571429 28.285714-79.714286 9.428571-79.714286-9.428571-82.571429-28.285714-67.142857-52-26.571429-74.857143q0-6.285714 20-46.285714t52.571429-99.714286 61.142857-111.714286 58.285714-105.142857 32-57.142857q10.285714-18.857143 32-18.857143t32 18.857143q2.285714 4 32 57.142857t58.285714 105.142857 61.142857 111.714286 52.571429 99.714286 20 46.285714zm-731.428571 0q0 41.714286-26.571429 74.857143t-67.142857 52-82.571429 28.285714-79.714286 9.428571-79.714286-9.428571-82.571429-28.285714-67.142857-52-26.571429-74.857143q0-6.285714 20-46.285714t52.571429-99.714286 61.142857-111.714286 58.285714-105.142857 32-57.142857q10.285714-18.857143 32-18.857143t32 18.857143q2.285714 4 32 57.142857t58.285714 105.142857 61.142857 111.714286 52.571429 99.714286 20 46.285714z" /></svg>