<?xml version="1.0" standalone="no"?><!DOCTYPE svg PUBLIC "-//W3C//DTD SVG 1.1//EN" "http://www.w3.org/Graphics/SVG/1.1/DTD/svg11.dtd"><svg class="icon" width="200px" height="175.04px" viewBox="0 0 1170 1024" version="1.1" xmlns="http://www.w3.org/2000/svg"><path fill="#ffffff" d="M548.571429 0l548.571428 219.428571v73.142858h-73.142857q0 14.857143-11.714286 25.714285t-27.714285 10.857143H112.571429q-16 0-27.714286-10.857143T73.142857 292.571429H0V219.428571zM146.285714 365.714286h146.285715v438.857143h73.142857V365.714286h146.285714v438.857143h73.142857V365.714286h146.285714v438.857143h73.142858V365.714286h146.285714v438.857143h33.714286q16 0 27.714285 10.857142t11.714286 25.714286v36.571429H73.142857v-36.571429q0-14.857143 11.714286-25.714286t27.714286-10.857142h33.714285V365.714286z m911.428572 548.571428q16 0 27.714285 10.857143t11.714286 25.714286v73.142857H0v-73.142857q0-14.857143 11.714286-25.714286t27.714285-10.857143h1018.285715z" /></svg>