<?xml version="1.0" standalone="no"?><!DOCTYPE svg PUBLIC "-//W3C//DTD SVG 1.1//EN" "http://www.w3.org/Graphics/SVG/1.1/DTD/svg11.dtd"><svg class="icon" width="200px" height="200.00px" viewBox="0 0 1024 1024" version="1.1" xmlns="http://www.w3.org/2000/svg"><path fill="#ffffff" d="M896 341.333333v-64.085333c0-11.584-9.664-21.248-21.482667-21.248H149.482667A21.333333 21.333333 0 0 0 128 277.248V341.333333h768z m0 128H128v277.418667c0 11.584 9.664 21.248 21.482667 21.248h725.034666A21.333333 21.333333 0 0 0 896 746.752V469.333333zM42.666667 277.248A106.666667 106.666667 0 0 1 149.482667 170.666667h725.034666C933.44 170.666667 981.333333 218.496 981.333333 277.248v469.504A106.666667 106.666667 0 0 1 874.517333 853.333333H149.482667C90.56 853.333333 42.666667 805.504 42.666667 746.752V277.248zM234.666667 704a42.666667 42.666667 0 1 1 0-85.333333h42.666666a42.666667 42.666667 0 1 1 0 85.333333h-42.666666z m192 0a42.666667 42.666667 0 1 1 0-85.333333h128a42.666667 42.666667 0 1 1 0 85.333333h-128z"  /></svg>