<?xml version="1.0" standalone="no"?><!DOCTYPE svg PUBLIC "-//W3C//DTD SVG 1.1//EN" "http://www.w3.org/Graphics/SVG/1.1/DTD/svg11.dtd"><svg class="icon" width="200px" height="200.00px" viewBox="0 0 1024 1024" version="1.1" xmlns="http://www.w3.org/2000/svg"><path fill="#ffffff" d="M672.088 558.775c0 6.504-5.003 14.008-11.506 15.009l-77.543 12.007c-4.002 13.007-9.505 25.514-16.009 38.021 14.008 20.011 29.016 38.521 45.024 57.531 2.001 3.002 3.502 6.004 3.502 10.006 0 3.502-1 7.004-3.502 9.505-10.005 13.508-66.036 74.541-80.544 74.541-4.002 0-7.504-1.501-10.506-3.502l-57.532-45.024c-12.506 6.504-25.013 11.506-38.521 15.509-2.501 25.514-5.003 53.028-11.506 77.542-2.001 7.004-8.004 12.007-15.008 12.007l-93.051 0c-7.004 0-14.008-5.503-15.008-12.507l-11.506-76.542c-13.007-4.002-25.514-9.505-37.521-15.509l-59.033 44.524c-2.501 2.502-6.503 3.502-10.005 3.502-4.002 0-7.504-1.501-10.506-4.002-13.007-12.007-72.04-65.536-72.04-80.044 0-3.502 1.501-6.504 3.502-9.505 14.508-19.011 29.516-37.521 44.024-57.031-7.004-13.508-13.007-27.016-17.51-41.023l-76.042-12.006c-7.004-1.001-12.007-7.504-12.007-14.508l0-92.552c0-6.503 5.003-14.008 11.506-15.008l77.542-12.007c4.002-13.007 9.505-25.514 16.009-38.021-14.008-20.011-29.016-38.521-45.024-57.532-2.001-3.001-3.502-6.503-3.502-10.005s1-7.004 3.502-10.006c10.005-13.507 66.036-74.04 80.544-74.04 4.002 0 7.504 1.5 10.506 3.502l57.532 45.024c12.507-6.504 25.014-11.507 38.521-16.009 2.501-25.014 5.003-52.529 11.506-77.042 2.001-7.004 8.004-12.007 15.008-12.007l93.051 0c7.004 0 14.008 5.503 15.008 12.507l11.506 76.542c13.007 4.002 25.515 9.505 37.521 15.509l59.032-44.524c3.002-2.502 6.504-3.502 10.006-3.502 4.002 0 7.504 1.5 10.506 4.002 13.007 12.007 72.039 66.036 72.039 80.044 0 3.502-1.501 6.503-3.502 9.505-14.508 19.511-29.516 37.521-43.523 57.031 6.504 13.508 12.507 27.015 17.009 41.022l76.042 11.507c7.004 1.501 12.007 8.004 12.007 15.008L672.086 558.775zM351.912 383.68c-70.539 0-128.07 57.531-128.07 128.07s57.532 128.07 128.07 128.07 128.07-57.531 128.07-128.07S422.451 383.68 351.912 383.68zM992.264 290.628c0 7.505-64.535 14.509-74.541 15.509-4.002 9.506-9.005 18.01-15.008 26.015 4.502 10.005 25.514 60.033 25.514 69.038 0 1.5-0.5 2.501-2.001 3.502-6.003 3.502-59.533 35.52-62.034 35.52-6.504 0-44.024-50.028-49.027-57.532-5.003 0.501-10.005 1.001-15.008 1.001s-10.006-0.5-15.008-1.001c-5.003 7.504-42.523 57.532-49.027 57.532-2.501 0-56.031-32.018-62.034-35.52-1.501-1.001-2.001-2.502-2.001-3.502 0-8.505 21.012-59.033 25.514-69.038-6.003-8.005-11.006-16.509-15.008-26.015-10.006-1-74.541-8.004-74.541-15.509L608.054 220.59c0-7.504 64.535-14.508 74.541-15.509 4.002-9.005 9.005-18.01 15.008-26.014-4.502-10.006-25.514-60.533-25.514-69.038 0-1.001 0.5-2.501 2.001-3.502 6.003-3.002 59.533-35.02 62.034-35.02 6.504 0 44.024 49.527 49.026 57.032 5.003-0.501 10.006-1.001 15.009-1.001s10.005 0.5 15.008 1c14.008-19.511 29.017-39.021 46.025-56.03l3.002-1.001c2.501 0 56.031 31.518 62.034 35.02 1.501 1.001 2.001 2.501 2.001 3.502 0 9.005-21.012 59.032-25.514 69.038 6.003 8.004 11.006 17.009 15.008 26.014 10.006 1.001 74.541 8.005 74.541 15.509L992.264 290.628zM992.264 802.91c0 7.504-64.535 14.508-74.541 15.508-4.002 9.506-9.005 18.011-15.008 26.015 4.502 10.006 25.514 60.033 25.514 69.038 0 1.501-0.5 2.501-2.001 3.502-6.003 3.502-59.533 35.52-62.034 35.52-6.504 0-44.024-50.027-49.027-57.532-5.003 0.501-10.005 1.001-15.008 1.001s-10.006-0.5-15.008-1.001c-5.003 7.505-42.523 57.532-49.027 57.532-2.501 0-56.031-32.018-62.034-35.52-1.501-1.001-2.001-2.502-2.001-3.502 0-8.505 21.012-59.032 25.514-69.038-6.003-8.004-11.006-16.509-15.008-26.015-10.006-1-74.541-8.004-74.541-15.508l0-70.039c0-7.504 64.535-14.508 74.541-15.508 4.002-9.005 9.005-18.011 15.008-26.015-4.502-10.006-25.514-60.533-25.514-69.038 0-1 0.5-2.501 2.001-3.502 6.003-3.002 59.533-35.02 62.034-35.02 6.504 0 44.024 49.527 49.026 57.032 5.003-0.501 10.006-1.001 15.009-1.001s10.005 0.5 15.008 1.001c14.008-19.511 29.017-39.021 46.025-56.031l3.002-1.001c2.501 0 56.031 31.518 62.034 35.02 1.501 1.001 2.001 2.502 2.001 3.502 0 9.005-21.012 59.032-25.514 69.038 6.003 8.004 11.006 17.01 15.008 26.015 10.006 1 74.541 8.004 74.541 15.508L992.264 802.91zM800.158 191.574c-35.02 0-64.035 29.016-64.035 64.035 0 35.52 29.016 64.035 64.035 64.035 35.52 0 64.035-29.017 64.035-64.035C864.193 220.59 835.178 191.574 800.158 191.574zM800.158 703.855c-35.02 0-64.035 29.016-64.035 64.035 0 35.52 29.016 64.035 64.035 64.035 35.52 0 64.035-29.016 64.035-64.035S835.178 703.855 800.158 703.855z" /></svg>