<?xml version="1.0" standalone="no"?><!DOCTYPE svg PUBLIC "-//W3C//DTD SVG 1.1//EN" "http://www.w3.org/Graphics/SVG/1.1/DTD/svg11.dtd"><svg class="icon" width="200px" height="200.00px" viewBox="0 0 1024 1024" version="1.1" xmlns="http://www.w3.org/2000/svg"><path fill="#ffffff" d="M127.231 411.256H770.55v84.395c0 12.802 15.478 19.213 24.53 10.161l158.363-158.363c5.612-5.612 5.612-14.71 0-20.321L795.08 168.764c-9.052-9.052-24.53-2.641-24.53 10.161v104.331H127.231c-35.346 0-64 28.654-64 64s28.654 64 64 64zM896.769 612.744H252.032v-84.395c0-12.802-15.478-19.213-24.53-10.161L69.139 676.551c-5.612 5.612-5.612 14.71 0 20.321l158.363 158.363c9.052 9.052 24.53 2.641 24.53-10.161v-104.33h644.737c35.347 0 64-28.654 64-64s-28.654-64-64-64z" /></svg>