<?xml version="1.0" standalone="no"?><!DOCTYPE svg PUBLIC "-//W3C//DTD SVG 1.1//EN" "http://www.w3.org/Graphics/SVG/1.1/DTD/svg11.dtd"><svg class="icon" width="200px" height="200.00px" viewBox="0 0 1024 1024" version="1.1" xmlns="http://www.w3.org/2000/svg"><path fill="#ffffff" d="M955.2 836c-39.8 0-79.8 0-119.6 0-90.2 0-180.4 0-270.6 0-97.4 0-194.8 0-292.2 0-61.6 0-123.2 0-184.8 0-4.6 0-9.2 0-13.8 0-14-0.2-21.8-10.4-22-23.6-0.2-20.4 0-40.8 0-61.2 0-16.6-1-33.4 0-50 1.4-23.4 23.4-21 40-21 24.8 0 49.8 0 74.6 0 86.6 0 173.2 0 259.8 0 98.8 0 197.8 0 296.6 0 68.2 0 136.4 0 204.4 0 11.2 0 30.4-3.2 39.8 4 12.6 9.4 8.6 31.6 8.6 45.4 0 23.4 0 46.8 0 70.2C976 815.2 976.6 835.2 955.2 836c-23.2 0.8-23.2 36.8 0 36 34.8-1.2 56.8-28.4 56.8-62 0-22 0-43.8 0-65.8 0-17.4 2-36.2-1-53.6-4.8-27.8-29.6-46-57-46.6-48.2-1-96.8 0-145 0-96.4 0-192.6 0-289 0-97.8 0-195.4 0-293.2 0-50.6 0-101.2-0.4-151.8 0-21.4 0.2-41.6 10.4-52.2 29.8C13.2 691.8 16 714.8 16 734.8c0 23.4 0 46.6 0 70 0 7.8-0.2 15.6 1.6 23.4 4.4 19 19 34.6 37.4 41 14.6 5 32.8 3 47.8 3 29.4 0 59 0 88.4 0 93 0 186 0 279 0 99.6 0 199.2 0 298.8 0 59.2 0 118.6 0 177.8 0 2.8 0 5.6 0 8.4 0C978.2 872 978.4 836 955.2 836zM834 662c0-68.6 0-137.2 0-205.6 0-108.4 0-217 0-325.4 0-25 0-50 0-75 0-23.2-36-23.2-36 0 0 68.6 0 137.2 0 205.6 0 108.4 0 217 0 325.4 0 25 0 50 0 75C798 685.2 834 685.2 834 662L834 662zM235.6 792l-35.4 0c-5.8 0-10.4-4.6-10.4-10.4l0-35.4c0-5.8 4.6-10.4 10.4-10.4l35.4 0c5.8 0 10.4 4.6 10.4 10.4l0 35.4C246 787.4 241.4 792 235.6 792zM323.6 792l-35.4 0c-5.8 0-10.4-4.6-10.4-10.4l0-35.4c0-5.8 4.6-10.4 10.4-10.4l35.4 0c5.8 0 10.4 4.6 10.4 10.4l0 35.4C334 787.4 329.4 792 323.6 792zM143.6 792 108.4 792c-5.8 0-10.4-4.6-10.4-10.4l0-35.4c0-5.8 4.6-10.4 10.4-10.4l35.4 0c5.8 0 10.4 4.6 10.4 10.4l0 35.4C154 787.4 149.4 792 143.6 792z" /></svg>