<?xml version="1.0" standalone="no"?><!DOCTYPE svg PUBLIC "-//W3C//DTD SVG 1.1//EN" "http://www.w3.org/Graphics/SVG/1.1/DTD/svg11.dtd"><svg class="icon" width="200px" height="200.00px" viewBox="0 0 1024 1024" version="1.1" xmlns="http://www.w3.org/2000/svg"><path fill="#ffffff" d="M841.142857 566.857143v274.285714q0 14.857143-10.857143 25.714286t-25.714285 10.857143H585.142857v-219.428572H438.857143v219.428572H219.428571q-14.857143 0-25.714285-10.857143t-10.857143-25.714286V566.857143q0-0.571429 0.285714-1.714286t0.285714-1.714286l328.571429-270.857142 328.571429 270.857142q0.571429 1.142857 0.571428 3.428572z m127.428572-39.428572l-35.428572 42.285715q-4.571429 5.142857-12 6.285714h-1.714286q-7.428571 0-12-4L512 242.285714l-395.428571 329.714286q-6.857143 4.571429-13.714286 4-7.428571-1.142857-12-6.285714l-35.428572-42.285715q-4.571429-5.714286-4-13.428571T57.714286 501.714286l410.857143-342.285715q18.285714-14.857143 43.428571-14.857142t43.428571 14.857142l139.428572 116.571429V164.571429q0-8 5.142857-13.142858t13.142857-5.142857h109.714286q8 0 13.142857 5.142857t5.142857 13.142858v233.142857l125.142857 104q5.714286 4.571429 6.285715 12.285714t-4 13.428571z" /></svg>