<?xml version="1.0" standalone="no"?><!DOCTYPE svg PUBLIC "-//W3C//DTD SVG 1.1//EN" "http://www.w3.org/Graphics/SVG/1.1/DTD/svg11.dtd"><svg class="icon" width="200px" height="200.00px" viewBox="0 0 1024 1024" version="1.1" xmlns="http://www.w3.org/2000/svg"><path fill="#ffffff" d="M512.18432 783.872a45.8752 45.8752 0 1 0 45.85472 45.8752 45.93664 45.93664 0 0 0-45.85472-45.8752z m226.9184-721.92h-453.8368a69.3248 69.3248 0 0 0-69.24288 69.24288v761.61024a69.3248 69.3248 0 0 0 69.24288 69.24288h453.8368a69.30432 69.30432 0 0 0 69.2224-69.24288V131.19488a69.30432 69.30432 0 0 0-69.2224-69.24288z m-453.8368 46.16192h453.8368a23.10144 23.10144 0 0 1 23.08096 23.08096v570.59328H262.144V131.19488a23.10144 23.10144 0 0 1 23.08096-23.08096z m453.8368 807.77216h-453.8368A23.12192 23.12192 0 0 1 262.144 892.80512v-140.9024h500.03968v140.9024a23.10144 23.10144 0 0 1-23.08096 23.08096z m0 0"  /></svg>