<?xml version="1.0" standalone="no"?><!DOCTYPE svg PUBLIC "-//W3C//DTD SVG 1.1//EN" "http://www.w3.org/Graphics/SVG/1.1/DTD/svg11.dtd"><svg t="1537262124268" class="icon" style="" viewBox="0 0 1059 1024" version="1.1" xmlns="http://www.w3.org/2000/svg" p-id="2892" xmlns:xlink="http://www.w3.org/1999/xlink" width="206.8359375" height="200"><defs><style type="text/css"></style></defs><path d="M738.589646 640l-51 149.375h102.875L738.589646 640z m-307.5 0v320c0 35.375 28.625 64 64 64H964.464646c35.375 0 64-28.625 64-64V490.625c0-35.375-28.625-64-64-64H644.464646v149.375c0 35.375-28.625 64-64 64H431.089646z m402.875 252c-3.375-6.625-6.125-12.625-8.125-17.875L809.464646 832.125H669.214646l-16.375 42.625c-6.625 16.625-12 28-16.625 33.875-4.75 6.125-12 8.75-22.375 8.75-8.5 0-16.625-3-23.25-9-6.625-6-10-13.5-10-21.375 0-4.25 0.625-9 2.375-13.625 1.25-4.75 4-11.75 7.625-20.5L678.839646 638.75c2.375-6 5.375-13.5 9-22 3.375-8.75 7.5-15.75 11.25-21.375 4-5.75 9-10.5 15.75-14.125 6.625-3.375 14.5-5.375 24.375-5.375 9.625 0 17.75 1.875 24.375 5.375 6.375 3.625 11.5 8.375 15.625 13.625 4 5.75 7.5 11.75 10 17.875 2.75 6.375 6.375 14.75 10.625 25.375l90 213.125c7 16.25 10.625 28 10.625 35.25 0 8.125-3.375 15.125-10 21.375-6.625 6.375-14.75 9.375-23.875 9.375-5.75 0-10.5-0.625-14.5-2.5-3.875-2.125-6.875-4.5-9.625-7.625-2.625-3.5-5.625-8.625-8.5-15.125zM300.839646 356.75c15.375 0 41.375 12.625 78.125 38 10.625-11.25 18.375-25 23.25-41 5.125-16 7.625-34.375 7.625-55.625 0-26.5-4.75-49.25-13.25-68.75-9.125-19.375-21.75-33.75-38.125-43.75-16.625-10-35.25-14.875-56.5-14.875-15.375 0-29.5 3-42 8.375-13 5.375-24.125 13.5-33.25 23.625-9.375 10.625-16.875 23.875-22 40.375-5.5 16.375-8.125 34.75-8.125 54.625 0 41.375 10 73.375 30.125 95.75 19.875 22.125 45.625 33.25 76.125 33.25 12.75 0 25.75-2.375 39-7.625-7.875-5.5-17.875-11.25-29.875-17.125-12.125-5.5-20.5-9.875-24.75-13.25-4.75-3-6.625-7.25-6.625-13.5 0-4.5 1.875-9 6.125-13 4-3.625 8.75-5.5 14.125-5.5zM68.464646 0C33.089646 0 4.464646 28.625 4.464646 64v469.375c0 35.375 28.625 64 64 64h469.375c35.375 0 64-28.625 64-64V64C601.839646 28.625 573.214646 0 537.839646 0H68.464646z m405.375 303.625c0 54.125-13.625 97.125-40.375 128.375 9.375 6 20 12 31.375 17.25 11.25 5.75 19 10 22.625 13.5 3.625 3.25 5.75 7.625 5.75 13.625 0 4-2.375 8.375-6.875 13-4.5 3.875-10 6.125-16 6.125-5.375 0-11.25-1.5-18.5-4.5-7.5-3.375-15.75-8.125-25.375-13.625-10-6.375-20.75-13.5-32-21.375-23.625 9-52.75 13.25-86.625 13.25-28 0-52.75-4-74.625-12.375-22-7.875-40.75-20-55.625-35.25-14.875-15.375-26.25-33.5-33.75-54.875-7.625-21.375-11.25-44.375-11.25-69.375 0-25.125 3.625-48.25 11.25-69.5 7.625-21.125 18.75-39 33.25-54C191.714646 159.375 209.464646 148 230.339646 140c21.125-7.875 44.75-12 71.5-12 35.875 0 67 7.25 93 21.75 26 14.25 45.625 34.5 58.875 61 13.5 26.25 20.125 57.25 20.125 92.875z m0 0" p-id="2893"></path></svg>