<?xml version="1.0" standalone="no"?><!DOCTYPE svg PUBLIC "-//W3C//DTD SVG 1.1//EN" "http://www.w3.org/Graphics/SVG/1.1/DTD/svg11.dtd"><svg class="icon" width="200px" height="199.42px" viewBox="0 0 1027 1024" version="1.1" xmlns="http://www.w3.org/2000/svg"><path fill="#ffffff" d="M350.312348 339.589835h-9.545652c14.776146-6.930405 28.506193-16.476057 40.405568-28.375431 26.937045-26.937045 41.974716-62.76593 42.236241-101.0793v-0.261525c-0.130762-78.718938-64.465841-142.923254-143.446303-143.054016-78.980462 0.130762-143.315541 64.335079-143.446304 143.054016 0.130762 57.273911 34.128975 106.832844 83.034096 129.585494h-11.114801c-70.480909 0-127.754821 57.012387-127.885582 126.970246v184.244158c0.261525 48.643596 27.983144 92.18746 70.742433 113.501724v166.983527c0 14.383859 11.768612 26.021709 26.283234 26.021709 14.514621 0 26.283233-11.63785 26.283233-26.021709v-184.37492c0-11.245563-7.322692-21.314264-18.175967-24.844847-31.252203-10.199464-52.435704-38.836419-52.566467-71.396246V466.560082c0-41.190142 33.86745-74.796067 75.319116-74.796067h141.877155c41.843954 0 75.842166 33.605925 75.842166 74.796067v183.982633c-0.130762 32.690589-21.314264 61.458307-52.566466 71.527008-10.853275 3.530584-18.175967 13.468523-18.175968 24.844847v184.37492c0 14.383859 11.768612 26.021709 26.283233 26.021709 14.514621 0 26.283233-11.63785 26.283234-26.021709V764.175201c42.75929-21.445026 70.480909-64.858128 70.742434-113.632486V466.560082c0-69.95786-57.535436-126.970246-128.408633-126.970247z m-161.491508-129.585493c0.130762-50.081982 40.928617-90.879837 91.141362-91.010599 50.212744 0.130762 91.010599 40.797855 91.141361 90.879836-0.392287 50.997318-40.405568 91.010599-91.141361 91.010599-50.212744-0.130762-91.010599-40.928617-91.141362-90.879836zM875.584727 818.833865c-24.321798 0-46.682161 12.945473-58.843059 33.998213-12.160899 21.052739-12.160899 46.943685 0 67.996424s34.521262 33.998212 58.843059 33.998212c37.528796 0 67.996424-30.467629 67.996425-67.996424s-30.336866-67.996424-67.996425-67.996425zM875.71549 444.068957c-37.528796 0-67.996424 30.467629-67.996425 67.996424s30.467629 67.996424 67.996425 67.996425 67.996424-30.467629 67.996424-67.996425-30.467629-67.996424-67.996424-67.996424zM875.584727 205.427659c24.844847 0.784574 47.989784-12.030137 60.673733-33.3444 12.683948-21.314264 12.683948-47.859022 0-69.173286-12.683948-21.314264-35.828885-34.128975-60.673733-33.3444-24.714085-0.784574-47.989784 12.030137-60.673732 33.3444a67.63029 67.63029 0 0 0 0 69.173286c12.683948 21.314264 35.959648 34.128975 60.673732 33.3444zM729.784702 163.322181c14.383859 0 26.152471-11.63785 26.152471-26.021709s-11.768612-26.021709-26.152471-26.021708h-124.224237c-1.307624 0-2.615247 0.130762-3.922871 0.261525-1.307624-0.130762-2.615247-0.261525-3.92287-0.261525-14.383859 0-26.152471 11.63785-26.152471 26.021708v350.181586h-44.197676c-14.383859 0-26.152471 11.63785-26.152471 26.021709s11.768612 26.021709 26.152471 26.021709h44.197676v344.820329c0 14.383859 11.768612 26.021709 26.152471 26.021709 1.307624 0 2.615247-0.130762 3.92287-0.261525 1.307624 0.130762 2.615247 0.261525 3.922871 0.261525h124.224237c14.383859 0 26.152471-11.63785 26.152471-26.021709s-11.768612-26.021709-26.152471-26.021708h-105.917508V539.656238h105.917508c14.383859 0 26.152471-11.63785 26.152471-26.021709s-11.768612-26.021709-26.152471-26.021708h-105.917508v-324.29064h105.917508z" /></svg>