<?xml version="1.0" standalone="no"?><!DOCTYPE svg PUBLIC "-//W3C//DTD SVG 1.1//EN" "http://www.w3.org/Graphics/SVG/1.1/DTD/svg11.dtd"><svg class="icon" width="200px" height="200.00px" viewBox="0 0 1024 1024" version="1.1" xmlns="http://www.w3.org/2000/svg"><path fill="#ffffff" d="M512.255827 128.936581c-212.501812 0-385.345392 172.872233-385.345392 385.379161 0 212.564233 172.872233 385.374044 385.379161 385.374044 212.43632 0 385.374044-172.839487 385.374044-385.374044C897.535727 301.808814 724.726939 128.936581 512.255827 128.936581M697.238888 303.738769c-1.991354 1.893116-2.988054 3.755534-2.988054 5.652743L575.875796 486.213707l69.337181 0c21.258163 0 31.761378 8.507768 31.761378 25.370831-1.991354 13.039991-12.559037 20.648272-31.761378 22.482037l-101.19475 0 0 50.545186 101.19475 0c21.258163 0 31.761378 8.320503 31.761378 25.212218-1.991354 13.164834-12.559037 20.617573-31.761378 22.51069l-101.19475 0 0 112.242364c0 18.691711-10.565636 28.034497-31.794124 28.034497-21.227464 0-31.794124-9.342786-31.794124-28.034497L480.42998 632.334669l-101.160981 0c-19.237133-1.925862-29.898961-9.346879-31.761378-22.51069 0-16.891715 10.532891-25.212218 31.761378-25.212218l101.193727 0 0-50.545186-101.193727 0c-19.237133-1.833765-29.898961-9.41237-31.761378-22.482037 0-16.829294 10.532891-25.370831 31.761378-25.370831l69.39858 0L330.166675 309.391513c0-1.89721-1.028423-3.759627-2.859118-5.652743-3.950985-7.421017-6.838755-14.903431-8.735965-22.418592 1.89721-14.932084 10.56666-23.411199 26.012444-25.208125 15.414061 0 26.943652 6.553253 34.68394 19.589151l132.98785 193.59009 132.98478-193.651488c7.677866-12.973476 19.240203-19.589151 34.68701-19.589151 15.381315 1.892093 24.084535 10.275018 26.043143 25.270547C705.942107 285.078781 702.954053 292.562219 697.238888 303.738769" /></svg>