<?xml version="1.0" standalone="no"?><!DOCTYPE svg PUBLIC "-//W3C//DTD SVG 1.1//EN" "http://www.w3.org/Graphics/SVG/1.1/DTD/svg11.dtd"><svg class="icon" width="200px" height="200.00px" viewBox="0 0 1024 1024" version="1.1" xmlns="http://www.w3.org/2000/svg"><path fill="#ffffff" d="M365.714286 219.428571h292.571428V146.285714H365.714286v73.142857z m-201.142857 0v731.428572h-36.571429q-52.571429 0-90.285714-37.714286T0 822.857143V347.428571q0-52.571429 37.714286-90.285714t90.285714-37.714286h36.571429z m640 0v731.428572H219.428571V219.428571h73.142858V128q0-22.857143 16-38.857143t38.857142-16h329.142858q22.857143 0 38.857142 16t16 38.857143v91.428571h73.142858z m219.428571 128v475.428572q0 52.571429-37.714286 90.285714t-90.285714 37.714286h-36.571429V219.428571h36.571429q52.571429 0 90.285714 37.714286t37.714286 90.285714z" /></svg>