<?xml version="1.0" standalone="no"?><!DOCTYPE svg PUBLIC "-//W3C//DTD SVG 1.1//EN" "http://www.w3.org/Graphics/SVG/1.1/DTD/svg11.dtd"><svg t="1548558856229" class="icon" style="" viewBox="0 0 1024 1024" version="1.1" xmlns="http://www.w3.org/2000/svg" p-id="819" xmlns:xlink="http://www.w3.org/1999/xlink" width="200" height="200"><defs><style type="text/css"></style></defs><path d="M384 213.333333 640 213.333333 512 341.333333 384 213.333333M448 625.493333C435.2 640 426.666667 661.333333 426.666667 682.666667 426.666667 729.6 465.066667 768 512 768 558.933333 768 597.333333 729.6 597.333333 682.666667 597.333333 659.2 587.946667 637.866667 572.16 622.506667L632.746667 561.92C663.466667 593.066667 682.666667 635.733333 682.666667 682.666667 682.666667 776.96 606.293333 853.333333 512 853.333333 417.706667 853.333333 341.333333 776.96 341.333333 682.666667 341.333333 637.013333 359.253333 595.626667 388.266667 565.333333L387.84 564.906667 689.92 263.253333 689.92 263.253333C720.64 232.533333 763.306667 213.333333 810.666667 213.333333 904.96 213.333333 981.333333 289.706667 981.333333 384 981.333333 478.293333 904.96 554.666667 810.666667 554.666667 763.733333 554.666667 721.066667 535.466667 689.92 504.746667L750.506667 444.16C765.866667 459.946667 787.2 469.333333 810.666667 469.333333 857.6 469.333333 896 430.933333 896 384 896 337.066667 857.6 298.666667 810.666667 298.666667 787.2 298.666667 765.866667 308.053333 750.506667 323.84L448 625.493333M273.493333 323.84C258.133333 308.053333 236.8 298.666667 213.333333 298.666667 166.4 298.666667 128 337.066667 128 384 128 430.933333 166.4 469.333333 213.333333 469.333333 236.8 469.333333 258.133333 459.946667 273.493333 444.16L334.08 504.746667C302.933333 535.466667 260.266667 554.666667 213.333333 554.666667 119.04 554.666667 42.666667 478.293333 42.666667 384 42.666667 289.706667 119.04 213.333333 213.333333 213.333333 260.693333 213.333333 303.36 232.533333 334.08 263.253333L334.08 263.253333 451.84 381.013333 391.253333 441.6 273.493333 323.84Z" p-id="820"></path></svg>