<?xml version="1.0" standalone="no"?><!DOCTYPE svg PUBLIC "-//W3C//DTD SVG 1.1//EN" "http://www.w3.org/Graphics/SVG/1.1/DTD/svg11.dtd"><svg class="icon" width="200px" height="200.00px" viewBox="0 0 1024 1024" version="1.1" xmlns="http://www.w3.org/2000/svg"><path fill="#ffffff" d="M1024 96v576c0 53-43 96-96 96h-96V352c0-88.2-71.8-160-160-160H256V96c0-53 43-96 96-96h576c53 0 96 43 96 96zM768 352v576c0 53-43 96-96 96H96c-53 0-96-43-96-96V352c0-53 43-96 96-96h576c53 0 96 43 96 96z m-136 56c0-13.2-10.8-24-24-24H152c-13.2 0-24 10.8-24 24v104h504v-104z"  /></svg>